<?xml version="1.0" encoding="UTF-8"?>
<svg version="1.1" xmlns="http://www.w3.org/2000/svg" width="1782" height="803">
<path d="M0 0 C0.66 0 1.32 0 2 0 C3.19694899 3.81457199 4.39247024 7.62958911 5.58691406 11.44494629 C6.03067747 12.86209723 6.4746898 14.27917024 6.91894531 15.69616699 C9.64522986 24.39424328 12.3427937 33.10001632 14.984375 41.82421875 C21.66741916 63.86457961 28.47788455 85.82840727 37.3125 107.125 C39.47168064 112.40367674 41.20629307 117.70422557 42.75 123.1875 C43.04837769 124.2386499 43.04837769 124.2386499 43.3527832 125.31103516 C46.44782224 136.76971678 47.41625369 148.0401143 47.375 159.875 C47.37279449 160.60187012 47.37058899 161.32874023 47.36831665 162.07763672 C47.21612363 187.07970096 40.1351377 208.65309314 32 232 C15.2336229 280.19168531 3.50077773 328.20006257 3.6875 379.5625 C3.68932281 380.61004456 3.69114563 381.65758911 3.69302368 382.73687744 C3.74145735 399.32580186 4.34410565 415.59305072 7 432 C7.17160645 433.07185547 7.34321289 434.14371094 7.52001953 435.24804688 C15.75111101 484.94353751 34.27821343 538.71190984 71 575 C70.6690332 574.18885742 70.33806641 573.37771484 69.99707031 572.54199219 C52.92732989 530.49615531 39.11987825 487.93289119 32 443 C31.84837402 442.05012207 31.69674805 441.10024414 31.54052734 440.12158203 C16.19171635 341.15534281 40.09511926 239.04456172 102 149 C102.79156494 147.89615967 102.79156494 147.89615967 103.59912109 146.77001953 C114.37665718 131.75478981 125.75440761 117.29838935 138.40234375 103.80859375 C140.2883565 101.76943109 142.08851043 99.71691719 143.8828125 97.6015625 C149.25449969 91.43724786 155.11831187 85.73310573 160.90600586 79.96362305 C162.9326298 77.94235732 164.95385547 75.91580426 166.97460938 73.88867188 C173.14688931 67.71320725 179.31649545 61.62727308 186 56 C187.60768373 54.54554483 189.21239715 53.08779105 190.8125 51.625 C195.53927701 47.36444531 200.41046569 43.31734345 205.36328125 39.32324219 C207.22589381 37.81737106 209.08193542 36.30360922 210.9375 34.7890625 C214.94985062 31.51550733 218.97160557 28.25378676 223 25 C223.97453125 24.21238281 224.9490625 23.42476562 225.953125 22.61328125 C226.75234375 21.97777344 227.5515625 21.34226562 228.375 20.6875 C229.37660156 19.88892578 229.37660156 19.88892578 230.3984375 19.07421875 C232 18 232 18 234 18 C234.09344352 42.3912224 234.16397937 66.78241796 234.20724869 91.1737833 C234.22787344 102.49913581 234.25599249 113.82437709 234.30175781 125.1496582 C234.3416281 135.02083455 234.36743345 144.89193034 234.37635398 154.76318496 C234.38156837 159.98991011 234.39382249 165.21640482 234.42292023 170.44305611 C234.45009222 175.36371477 234.45844133 180.28404829 234.45243073 185.20477486 C234.45353016 187.00952929 234.46147339 188.81429472 234.4768219 190.61898422 C234.49677809 193.08672387 234.49191921 195.55324236 234.48101807 198.02101135 C234.49849512 199.08767394 234.49849512 199.08767394 234.51632524 200.17588526 C234.44159639 206.45145176 232.27201085 210.64135949 227.93823242 215.14038086 C226.8144519 216.07442749 226.8144519 216.07442749 225.66796875 217.02734375 C219.22748045 222.60091138 213.25069258 228.59900542 207.23999023 234.62963867 C205.30890453 236.56610549 203.37250118 238.49713956 201.43554688 240.42773438 C195.41131703 246.4484316 189.48162919 252.4737063 184 259 C183.05151772 260.08381864 182.10103548 261.16589073 181.1484375 262.24609375 C173.34742265 271.19034879 166.10807509 280.49950529 159 290 C158.51644043 290.6408252 158.03288086 291.28165039 157.53466797 291.94189453 C114.88256377 348.5019733 83.14507918 419.82601546 82.796875 491.625 C82.78628555 493.09018822 82.78628555 493.09018822 82.77548218 494.5849762 C82.66025964 515.22260106 82.56192021 535.59262966 86 556 C86.19335938 557.18094238 86.38671875 558.36188477 86.5859375 559.57861328 C89.40279239 576.35585317 93.26413488 592.66677285 98.10400391 608.96337891 C100.14640152 615.95048924 102.01668899 622.6632695 101 630 C100.67 630.33 100.34 630.66 100 631 C97.07796744 630.98048987 94.19383295 630.88553079 91.27734375 630.734375 C90.34848862 630.68762634 89.41963348 630.64087769 88.46263123 630.5927124 C75.46286639 629.87554072 62.51439391 628.54965511 49.5625 627.25 C48.20505417 627.11475143 46.84760171 626.97956937 45.49014282 626.8444519 C-44.35825307 617.88012762 -135.40395874 602.54800769 -249 527 C-249.56299805 526.54141602 -250.12599609 526.08283203 -250.70605469 525.61035156 C-267.58282433 511.75514521 -284.48022748 495.97628764 -297 478 C-297.79446533 476.87489014 -297.79446533 476.87489014 -298.60498047 475.72705078 C-319.57622669 445.83136766 -345 401.81580232 -345 364 C-337.90394733 365.88638471 -330.8786881 367.91967861 -323.88671875 370.16015625 C-322.93818024 370.46228531 -321.98964172 370.76441437 -321.01235962 371.07569885 C-309.88427733 374.62623262 -298.76970896 378.21894215 -287.65710449 381.81756592 C-283.93700693 383.02036725 -280.21524079 384.21788932 -276.49316406 385.41455078 C-270.29011347 387.41078781 -264.09349338 389.42598074 -257.90078735 391.45407104 C-255.52063842 392.2307606 -253.13862427 393.00175872 -250.75473022 393.76687622 C-247.4104934 394.84175176 -244.07388955 395.93774855 -240.73828125 397.0390625 C-239.75187653 397.35106094 -238.7654718 397.66305939 -237.74917603 397.98451233 C-230.6905173 400.35153601 -225.30705472 403.37536069 -221.2421875 409.76171875 C-220.79101562 410.72722656 -220.33984375 411.69273437 -219.875 412.6875 C-204.7743043 442.31715013 -181.18720695 469.81897691 -158.62890625 494.15234375 C-156.16026441 496.82640006 -153.73208428 499.53159914 -151.3125 502.25 C-145.5838432 508.62083719 -139.61023265 514.58680607 -133.109375 520.16796875 C-130.82370454 522.15311587 -128.60298622 524.2003983 -126.375 526.25 C-120.1690413 531.83347652 -113.65187827 536.96263934 -107 542 C-106.31905273 542.5161084 -105.63810547 543.0322168 -104.93652344 543.56396484 C-65.16039941 573.49171735 -11.87476683 602.17325792 39 604 C37.93007813 603.44054687 36.86015625 602.88109375 35.7578125 602.3046875 C30.49843795 599.54924659 25.2476848 596.77763169 20 594 C18.98856934 593.4647168 17.97713867 592.92943359 16.93505859 592.37792969 C-12.96175024 576.51659241 -42.38527646 559.61701672 -70 540 C-70.71317383 539.49791016 -71.42634766 538.99582031 -72.16113281 538.47851562 C-83.1399542 530.74051668 -93.68904722 522.60523755 -104 514 C-104.86383301 513.28481201 -104.86383301 513.28481201 -105.74511719 512.55517578 C-118.04309162 502.3710271 -129.56557872 491.51830323 -140.875 480.25 C-141.76703125 479.3626416 -142.6590625 478.4752832 -143.578125 477.56103516 C-148.59144791 472.53548004 -153.42414407 467.4272108 -158 462 C-158.51062988 461.39607422 -159.02125977 460.79214844 -159.54736328 460.16992188 C-208.88462383 401.26259315 -236.25203374 331.49078395 -236.1875 254.4375 C-236.1882251 253.55513672 -236.1889502 252.67277344 -236.18969727 251.76367188 C-236.18854421 239.08003967 -235.85240842 226.56991431 -234 214 C-229.33136921 215.50063132 -225.96365878 218.22533043 -222.25 221.3125 C-220.9101595 222.40524829 -219.5689627 223.49633524 -218.2265625 224.5859375 C-217.53208008 225.15022461 -216.83759766 225.71451172 -216.12207031 226.29589844 C-212.66842299 229.06930597 -209.1498943 231.75558596 -205.625 234.4375 C-204.91408203 234.97890625 -204.20316406 235.5203125 -203.47070312 236.078125 C-202.02736939 237.17656835 -200.58368468 238.27455066 -199.13964844 239.37207031 C-196.36343402 241.48432473 -193.59330658 243.60446942 -190.82348633 245.72509766 C-184.60017754 250.48948642 -178.37155972 255.24696266 -172.14013672 260.00073242 C-170.34551479 261.36980037 -168.55156363 262.73974806 -166.75830078 264.1105957 C-162.65032028 267.24523433 -158.53102371 270.35813666 -154.35546875 273.40234375 C-138.49669584 284.97989177 -134.08368957 293.51037506 -129.92782593 312.69128418 C-120.46117515 356.05864359 -106.53140231 398.68649577 -85.97705078 438.11962891 C-84.9598889 440.07719532 -83.96217549 442.04398465 -82.96484375 444.01171875 C-68.68494182 471.89794233 -50.48521513 497.65639717 -29.19140625 520.625 C-27.26472151 522.71310039 -25.40577475 524.83861873 -23.5625 527 C-16.63719257 534.95430358 -8.98843179 542.13401137 -1 549 C-0.369729 549.54229248 0.26054199 550.08458496 0.90991211 550.64331055 C9.1221501 557.65277283 17.54420421 564.28452975 26.375 570.5 C27.1700293 571.06275635 27.96505859 571.6255127 28.78417969 572.20532227 C34.62759605 576.25480256 40.70584156 579.70058283 47 583 C46.18845459 582.19369141 45.37690918 581.38738281 44.54077148 580.55664062 C41.49844491 577.5325667 38.45955409 574.50505938 35.42163086 571.4765625 C34.11232826 570.17225416 32.80212531 568.86884892 31.4909668 567.56640625 C24.76864079 560.88761531 18.13496474 554.22968365 12 547 C10.22640533 545.04520025 8.42414269 543.11901204 6.625 541.1875 C2.38689299 536.59440625 -1.65600193 531.88729778 -5.57421875 527.015625 C-7.35359865 524.80357784 -9.14630553 522.60793161 -10.95703125 520.421875 C-29.89469745 497.49136241 -46.60235643 473.02878665 -61 447 C-61.44263184 446.21044922 -61.88526367 445.42089844 -62.34130859 444.60742188 C-107.51197347 363.58934334 -118.01122295 265.08774383 -93 176 C-79.54325194 129.67990389 -58.34451625 86.335977 -32 46 C-31.5064502 45.24380371 -31.01290039 44.48760742 -30.50439453 43.70849609 C-23.67471723 33.28284811 -16.60605274 23.03562844 -9.35449219 12.89941406 C-8.07359899 11.1032084 -6.80481863 9.29907771 -5.5390625 7.4921875 C-4.82492187 6.48414063 -4.11078125 5.47609375 -3.375 4.4375 C-2.76398438 3.56996094 -2.15296875 2.70242187 -1.5234375 1.80859375 C-1.02070313 1.21175781 -0.51796875 0.61492187 0 0 Z " fill="#1A7691" transform="translate(420,0)"/>
<path d="M0 0 C1.05458405 0.00093658 2.10916809 0.00187317 3.19570923 0.00283813 C73.66436402 0.13794138 151.82801917 10.53419122 209.625 54.1875 C210.53016357 54.86377441 210.53016357 54.86377441 211.45361328 55.55371094 C223.44018308 64.55881723 234.22643386 74.71946935 244.875 85.25 C245.63917236 86.00104004 246.40334473 86.75208008 247.19067383 87.52587891 C248.24871216 88.58234619 248.24871216 88.58234619 249.328125 89.66015625 C249.96395508 90.29187744 250.59978516 90.92359863 251.25488281 91.57446289 C252.625 93.1875 252.625 93.1875 252.625 95.1875 C246.14392613 93.29892279 239.7569523 91.24106236 233.40234375 88.96484375 C231.64673617 88.34213002 229.89095089 87.71991711 228.13500977 87.09814453 C226.77244553 86.61501801 226.77244553 86.61501801 225.38235474 86.12213135 C149.5684107 59.313495 71.42041286 42.66501052 -9.375 44.1875 C-10.81987793 44.21432861 -10.81987793 44.21432861 -12.29394531 44.24169922 C-65.49608456 45.3938796 -118.12580144 53.40650163 -169.6875 66.375 C-170.93233154 66.68356934 -172.17716309 66.99213867 -173.4597168 67.31005859 C-185.67297966 70.470467 -185.67297966 70.470467 -195.78125 77.65625 C-198.25688156 83.14147286 -199.52172307 88.83876674 -200.875 94.6875 C-201.47875188 97.2035376 -202.08420273 99.71916816 -202.69140625 102.234375 C-202.97902832 103.43513672 -203.26665039 104.63589844 -203.56298828 105.87304688 C-204.99003333 111.6979307 -206.66002139 117.44152849 -208.375 123.1875 C-207.3837915 122.87897095 -207.3837915 122.87897095 -206.37255859 122.56420898 C-160.86853341 108.49968295 -113.9120991 99.49049181 -66.375 96.1875 C-65.14241455 96.09992432 -63.9098291 96.01234863 -62.63989258 95.92211914 C-49.32833539 95.04442977 -36.0237919 94.9872653 -22.6875 95 C-21.51592346 95.00060425 -20.34434692 95.0012085 -19.13726807 95.00183105 C-0.79956797 95.0274524 17.36193542 95.40997877 35.625 97.1875 C36.28987427 97.25066406 36.95474854 97.31382812 37.63977051 97.37890625 C71.08016416 100.56389151 104.00038051 106.18587831 136.625 114.1875 C138.43798584 114.63150146 138.43798584 114.63150146 140.28759766 115.08447266 C162.68879662 120.64944639 184.67799789 127.62537545 206.48413086 135.17773438 C216.03973098 138.48203522 225.26600606 139.62562525 234.625 135.1875 C240.70610201 131.56115476 245.454922 126.38825114 250.375 121.375 C269.91425372 101.49152328 294.13083039 88.20992475 322.5 87.9375 C345.56321898 88.13107945 368.98717635 94.91350838 386.625 110.1875 C387.41648437 110.77402344 388.20796875 111.36054687 389.0234375 111.96484375 C392.19565492 114.67504151 394.55197532 117.68697024 397.0625 121 C398.0385763 122.25428476 399.01513341 123.50819551 399.9921875 124.76171875 C401.46320182 126.66414126 402.90602373 128.57406951 404.3203125 130.51953125 C408.14802531 135.5393032 412.52643468 137.70522095 418.625 139.1875 C428.39682397 139.86905421 438.037248 135.7361845 447.14346313 132.69998169 C452.04489575 131.06994103 456.96117111 129.48631183 461.87890625 127.90625 C462.87180161 127.58717178 463.86469696 127.26809357 464.88768005 126.93934631 C507.83755244 113.2319028 552.07856547 103.84661309 596.875 98.875 C597.60673431 98.79359772 598.33846863 98.71219543 599.09237671 98.62832642 C615.84448896 96.79121517 632.52690944 95.95068924 649.375 95.9375 C650.28008301 95.93649292 651.18516602 95.93548584 652.11767578 95.93444824 C726.42717037 95.98967037 726.42717037 95.98967037 735.625 105.1875 C723.76474066 107.47701701 711.89312972 109.69578403 700.0078125 111.8515625 C618.19686492 126.71250254 538.80622808 146.46278576 459.96582031 173.09790039 C459.02104828 173.415896 458.07627625 173.7338916 457.10287476 174.06152344 C455.28891427 174.67243508 453.47588315 175.286116 451.66397095 175.90307617 C433.27982722 182.0887898 414.00975461 182.21465605 396.375 173.5625 C389.37180492 169.95273529 383.50006549 165.43565302 377.625 160.1875 C365.74712866 149.82971339 353.74951507 142.72118352 338.625 138.1875 C337.8103125 137.94128906 336.995625 137.69507813 336.15625 137.44140625 C317.81543099 132.88760701 298.57579179 136.79567699 282.45996094 146.05517578 C273.49033286 151.59018577 265.99243997 159.27171189 259.125 167.1875 C257.96034572 168.52259149 256.79371057 169.85595785 255.625 171.1875 C255.08230469 171.81011719 254.53960938 172.43273437 253.98046875 173.07421875 C248.28567578 179.22246128 240.92154817 183.48015297 232.50390625 184.42578125 C220.4981847 184.81045024 209.23564854 179.36479724 198.25 175.0625 C116.06802093 143.40827384 28.13165074 132.32301326 -240.375 177.1875 C-245.67846146 178.88311313 -250.9835055 180.57350059 -256.29174805 182.25408936 C-258.38663115 182.92129854 -260.47757882 183.59984783 -262.56835938 184.27978516 C-264.43911133 184.87605713 -264.43911133 184.87605713 -266.34765625 185.484375 C-267.44343994 185.83854492 -268.53922363 186.19271484 -269.66821289 186.55761719 C-272.375 187.1875 -272.375 187.1875 -275.375 186.1875 C-275.08551231 185.14896378 -275.08551231 185.14896378 -274.79017639 184.08944702 C-263.18028542 142.40699264 -251.68657671 100.91157335 -244.17559814 58.25650024 C-243.79965564 56.12517011 -243.41873856 53.9948012 -243.03564453 51.86474609 C-242.6406976 49.66641251 -242.2535105 47.46663021 -241.88232422 45.26416016 C-241.00770605 40.58461987 -240.13166923 38.13054206 -236.375 35.1875 C-233.57421568 34.21251793 -230.94122925 33.44212849 -228.0703125 32.765625 C-227.23605743 32.55818665 -226.40180237 32.35074829 -225.54226685 32.13702393 C-222.82391941 31.46872838 -220.10071202 30.82505282 -217.375 30.1875 C-216.47777222 29.97569092 -215.58054443 29.76388184 -214.65612793 29.5456543 C-207.86678831 27.95141115 -201.06196779 26.43177541 -194.25 24.9375 C-193.17829559 24.70205475 -192.10659119 24.4666095 -191.00241089 24.22402954 C-128.13334567 10.46681783 -64.50578489 -0.07459675 0 0 Z " fill="#1A7691" transform="translate(275.375,615.8125)"/>
<path d="M0 0 C5.66519163 4.64475339 10.0423726 10.14723708 12.515625 17.0625 C13.485 16.2375 14.454375 15.4125 15.453125 14.5625 C16.10152344 14.01335938 16.74992187 13.46421875 17.41796875 12.8984375 C18.79775203 11.69080596 20.14603669 10.44604109 21.45703125 9.1640625 C28.01475911 2.86764828 35.32520422 -1.15864843 43.515625 -4.9375 C44.49789063 -5.39640625 45.48015625 -5.8553125 46.4921875 -6.328125 C61.05077455 -11.90041438 81.30262834 -11.16414616 95.515625 -4.9375 C106.24041254 0.16092221 114.42531682 7.75866382 118.515625 19.0625 C120.63338015 26.28931517 120.81201364 33.28060625 120.80615234 40.77075195 C120.81286957 42.01409805 120.81958679 43.25744415 120.82650757 44.53846741 C120.84216771 47.92246808 120.84885725 51.30622327 120.85013914 54.69024301 C120.85156657 56.80681854 120.85584696 58.92336876 120.86113358 61.03993797 C120.87958222 68.429718 120.88780935 75.81942622 120.88623047 83.20922852 C120.8850255 90.09123804 120.90621015 96.97293579 120.9377178 103.85486633 C120.96385515 109.77524611 120.97459908 115.69552372 120.97331965 121.61596078 C120.97280993 125.14728223 120.97850053 128.67832521 120.99967575 132.209589 C121.02260926 136.14025798 121.01355292 140.07049564 121.00146484 144.0012207 C121.01270386 145.16959473 121.02394287 146.33796875 121.03552246 147.54174805 C121.02713348 148.61125198 121.01874451 149.68075592 121.01010132 150.78266907 C121.01119085 151.71120854 121.01228039 152.63974802 121.01340294 153.59642506 C120.36112364 156.8279255 119.0541176 158.02700876 116.515625 160.0625 C114.0561676 160.5771637 114.0561676 160.5771637 111.27563477 160.59594727 C110.23097549 160.6117836 109.18631622 160.62761993 108.11000061 160.64393616 C106.98702072 160.63897629 105.86404083 160.63401642 104.70703125 160.62890625 C102.96872292 160.63820412 102.96872292 160.63820412 101.19529724 160.64768982 C98.74503418 160.65479233 96.29472291 160.65160657 93.84448242 160.63891602 C90.09528721 160.62506341 86.34859324 160.65910364 82.59960938 160.69726562 C80.21874939 160.69821692 77.83788628 160.69635743 75.45703125 160.69140625 C74.33607559 160.70466446 73.21511993 160.71792267 72.06019592 160.73158264 C71.01238449 160.71904953 69.96457306 160.70651642 68.88500977 160.69360352 C67.96663834 160.69264175 67.04826691 160.69167999 66.10206604 160.69068909 C62.26627162 159.75905981 60.83831647 158.22622825 58.515625 155.0625 C58.05649745 152.02210145 57.89916309 149.55989309 57.97973633 146.53125 C57.98221878 145.68333389 57.98470123 144.83541779 57.98725891 143.96180725 C58.00092399 141.16133682 58.04958491 138.36257279 58.09765625 135.5625 C58.11207689 133.60540409 58.12397533 131.64828812 58.13346863 129.69116211 C58.1638903 124.53371625 58.22252614 119.3770044 58.28887939 114.21990967 C58.3911085 105.99531549 58.45526422 97.77043375 58.51068687 89.54541016 C58.53462086 86.68889851 58.57331552 83.8328787 58.6139679 80.9765625 C59.59470737 62.82337472 59.59470737 62.82337472 52.515625 47.0625 C47.93808891 43.62934793 43.17578357 43.4371263 37.62109375 43.58203125 C31.09928573 44.5910657 25.81678966 48.27188325 21.515625 53.1875 C16.31713109 60.66033499 16.35924407 68.24811148 16.43383789 77.10888672 C16.43690445 77.97491013 16.43997101 78.84093353 16.44313049 79.73320007 C16.45024205 81.59869202 16.45960871 83.4641765 16.47102547 85.32964706 C16.48850335 88.27967579 16.49874104 91.22964976 16.50694275 94.17971802 C16.53133204 102.56192181 16.56717153 110.94405086 16.61157227 119.32617188 C16.63828654 124.46412805 16.65537017 129.60204255 16.66644096 134.74005508 C16.67266131 136.6977608 16.68267968 138.65545817 16.69651985 140.61312485 C16.71564209 143.3396315 16.72261807 146.06591602 16.72680664 148.79248047 C16.73556824 149.60493729 16.74432983 150.4173941 16.75335693 151.25447083 C16.7435232 156.8346018 16.7435232 156.8346018 14.515625 159.0625 C12.07321167 159.30300903 12.07321167 159.30300903 8.96435547 159.28955078 C7.22277664 159.28932419 7.22277664 159.28932419 5.4460144 159.28909302 C4.18765778 159.27877045 2.92930115 159.26844788 1.6328125 159.2578125 C0.34827179 159.2549826 -0.93626892 159.25215271 -2.25973511 159.24923706 C-5.67600267 159.24159809 -9.09210037 159.22194752 -12.50830078 159.1998291 C-15.99379173 159.17937624 -19.4793101 159.17023655 -22.96484375 159.16015625 C-29.80475731 159.13870175 -36.644558 159.10456271 -43.484375 159.0625 C-46.15807448 155.12769789 -45.73644027 150.88157992 -45.6796875 146.32177734 C-45.67676697 145.43992767 -45.67384644 144.558078 -45.6708374 143.64950562 C-45.66323046 141.73538346 -45.65100256 139.82127537 -45.63470459 137.90720749 C-45.60914625 134.87126607 -45.59613687 131.83549984 -45.58642578 128.79946899 C-45.55969591 121.25411987 -45.51145073 113.70893595 -45.46362305 106.16369629 C-45.42403209 99.79456119 -45.3927951 93.42548967 -45.37249756 87.05626297 C-45.35960805 84.07729946 -45.33458506 81.09859867 -45.30908203 78.11972046 C-45.30180887 76.27301252 -45.29510643 74.42630222 -45.2890625 72.57958984 C-45.27356354 71.35254333 -45.27356354 71.35254333 -45.25775146 70.10070801 C-45.25625909 61.82258735 -45.93411169 53.56423702 -51.484375 47.0625 C-56.98784359 43.15560079 -61.93711797 43.10818058 -68.484375 44.0625 C-75.95805052 46.60481182 -82.29680606 50.21725165 -86.484375 57.0625 C-87.31993346 60.43068543 -87.30329166 63.67099038 -87.25732422 67.12866211 C-87.26795395 68.11479492 -87.27858368 69.10092773 -87.28953552 70.11694336 C-87.31751596 73.35843408 -87.30354518 76.59828824 -87.2890625 79.83984375 C-87.30031602 82.09429848 -87.31419813 84.3487415 -87.33059692 86.60316467 C-87.36661843 92.52322553 -87.36701037 98.44276976 -87.35992432 104.36291504 C-87.35901111 110.40935494 -87.39187428 116.45560156 -87.421875 122.50195312 C-87.47572198 134.35552287 -87.49192082 146.20882146 -87.484375 158.0625 C-91.04151672 159.97574173 -93.63581223 160.37242062 -97.69921875 160.51171875 C-98.93349609 160.55578857 -100.16777344 160.5998584 -101.43945312 160.64526367 C-102.75365234 160.67982666 -104.06785156 160.71438965 -105.421875 160.75 C-106.42456421 160.77944199 -106.42456421 160.77944199 -107.44750977 160.80947876 C-116.13347262 161.06053543 -124.80012225 161.13348926 -133.484375 160.75 C-134.31831787 160.71543701 -135.15226074 160.68087402 -136.01147461 160.64526367 C-140.52957688 160.38828104 -144.17410605 159.53461084 -148.484375 158.0625 C-148.48676335 157.51054742 -148.48915171 156.95859484 -148.49161243 156.38991642 C-148.55147813 142.78389108 -148.62763386 129.17803435 -148.72008991 115.57219028 C-148.76434227 108.99174341 -148.80369009 102.4113521 -148.83081055 95.83081055 C-148.92260841 56.84704544 -148.92260841 56.84704544 -151.85229492 18.00366211 C-152.38281701 13.30111392 -152.79478088 8.79084087 -152.484375 4.0625 C-149.47817529 1.05630029 -145.79038339 1.13896665 -141.734375 0.5625 C-140.87618164 0.43286865 -140.01798828 0.3032373 -139.13378906 0.16967773 C-135.30696519 -0.40377489 -131.47841979 -0.93826861 -127.640625 -1.43359375 C-121.52562441 -2.22601929 -115.72028198 -3.35013087 -109.796875 -5.0625 C-103.53295471 -6.83159883 -97.96380926 -7.42244726 -91.484375 -6.9375 C-90.2697424 -4.50823479 -90.16169806 -2.58157454 -89.921875 0.125 C-89.83808594 1.02347656 -89.75429687 1.92195313 -89.66796875 2.84765625 C-89.4352422 6.92284676 -89.44871518 10.98199763 -89.484375 15.0625 C-88.74501709 14.51891846 -88.74501709 14.51891846 -87.99072266 13.96435547 C-61.88154909 -5.18643392 -30.60611853 -20.76204532 0 0 Z " fill="#FF7F01" transform="translate(1643.484375,504.9375)"/>
<path d="M0 0 C2.25115385 0.00314002 4.5009625 -0.02030974 6.75195312 -0.0456543 C20.27056067 -0.10563283 33.58574476 1.55463295 46.40039062 6.06567383 C47.51631592 6.45082153 47.51631592 6.45082153 48.65478516 6.84375 C63.15655973 12.03187142 83.88465184 22.78419625 91.15039062 37.31567383 C91.01998143 45.44179682 88.11681432 51.02588405 84.15039062 58.00317383 C83.56386719 59.05738525 82.97734375 60.11159668 82.37304688 61.19775391 C69.45504274 84.21236548 69.45504274 84.21236548 63.15039062 89.31567383 C59.8488588 89.39706752 58.52918267 88.61924956 55.96679688 86.56567383 C55.22300781 85.82317383 54.47921875 85.08067383 53.71289062 84.31567383 C38.48741776 70.10824893 22.12026038 63.74035296 1.40820312 64.04223633 C-11.76709019 64.51428479 -21.62472495 70.6686947 -30.59960938 80.00317383 C-43.14812903 94.72057342 -46.18742295 113.05547846 -45.07275391 131.81616211 C-43.57088648 148.63904915 -36.28855748 163.84266623 -23.84960938 175.31567383 C-21.30965585 177.41324797 -18.83488581 178.9319873 -15.84960938 180.31567383 C-15.06070312 180.7049707 -14.27179688 181.09426758 -13.45898438 181.49536133 C-1.00031492 186.6568101 15.79252138 186.24532956 28.33789062 181.57348633 C38.00071183 177.25205795 46.09709637 171.82470259 53.93164062 164.69458008 C57.60199504 161.38938847 57.60199504 161.38938847 60.60961914 160.98510742 C64.62076314 161.50697626 65.83939489 163.8040012 68.29443359 166.82446289 C71.6406138 171.31596813 74.69661149 175.97329971 77.71289062 180.69067383 C78.34646484 181.6677832 78.98003906 182.64489258 79.6328125 183.65161133 C90.83551271 201.0036825 90.83551271 201.0036825 91.90039062 205.44067383 C88.41760392 218.7913562 71.8912117 229.69787367 60.75195312 236.34301758 C51.96688829 241.37057266 43.00981334 244.94973349 33.15039062 247.31567383 C32.38235107 247.50186279 31.61431152 247.68805176 30.82299805 247.87988281 C22.99517824 249.54400671 15.21025338 249.65439824 7.24584961 249.63134766 C4.98371418 249.62820278 2.72291097 249.65167493 0.4609375 249.67700195 C-12.97641782 249.73706524 -25.86723558 248.012239 -38.47460938 243.12817383 C-39.26601318 242.8277417 -40.05741699 242.52730957 -40.87280273 242.21777344 C-63.18973388 233.45998329 -82.5560141 216.91283785 -94.84960938 196.31567383 C-95.22956055 195.68322754 -95.60951172 195.05078125 -96.00097656 194.39916992 C-113.71664208 164.34972078 -118.31881879 125.14249646 -109.84960938 91.31567383 C-109.60017578 90.2729834 -109.60017578 90.2729834 -109.34570312 89.20922852 C-101.85228224 58.63884665 -82.42477437 30.76533943 -55.39257812 14.35083008 C-38.0004816 4.17020652 -19.97243894 -0.05795957 0 0 Z " fill="#FF7F01" transform="translate(1201.849609375,420.684326171875)"/>
<path d="M0 0 C17.60620803 13.59167773 27.75125378 32.97665336 30.9375 54.9375 C32.52462449 83.31966414 29.43861916 108.98136736 9.8125 131.0625 C-4.90081744 146.95349461 -25.02041876 155.45985327 -46.4453125 156.3203125 C-73.42153558 157.04100157 -95.43342538 152.12291014 -116.0625 133.9375 C-132.51363353 118.09159212 -139.92830002 97.24810132 -140.46459961 74.80908203 C-140.71425102 48.82811848 -134.58849452 24.76732523 -115.94921875 5.6953125 C-85.25520419 -23.62806271 -33.78376869 -23.73620856 0 0 Z M-70.0625 40.9375 C-71.361875 41.7728125 -71.361875 41.7728125 -72.6875 42.625 C-80.17685597 49.91726766 -83.90881493 58.9000146 -84.5 69.3125 C-84.11513801 78.6328533 -80.84892775 88.38919252 -74.0625 94.9375 C-65.36621701 101.72774836 -57.92155787 102.87986022 -47.0625 101.9375 C-39.61267572 99.83702253 -34.33786808 95.29369882 -30.0625 88.9375 C-24.8982506 79.50644698 -23.42462023 69.37831764 -26.125 58.875 C-29.36955191 49.38279929 -35.21006598 42.58674345 -44.0625 37.9375 C-52.43783185 35.14572272 -62.8293305 35.74770089 -70.0625 40.9375 Z " fill="#FF7F01" transform="translate(1442.0625,511.0625)"/>
<path d="M0 0 C3.66664145 3.02617038 7.00824108 6.31521962 10.32275391 9.72021484 C11.15806641 10.56970703 11.99337891 11.41919922 12.85400391 12.29443359 C27.96343342 28.33561126 33.48941866 48.11108814 33.32275391 69.72021484 C32.83869722 74.86331719 31.65850409 79.66966105 28.32275391 83.72021484 C24.13894625 86.15880759 20.72461496 87.16799863 15.91967773 87.57983398 C14.66588821 87.69327652 13.41209869 87.80671906 12.12031555 87.92359924 C10.75682919 88.03448249 9.3933183 88.14506453 8.02978516 88.25537109 C6.60079692 88.37979446 5.17189893 88.50525805 3.74308777 88.63169861 C-0.02842911 88.96242509 -3.80105963 89.27816768 -7.57409668 89.59100342 C-11.31049279 89.90371379 -15.04552782 90.23186086 -18.78076172 90.55810547 C-36.40254495 92.08821349 -54.03364843 93.46543911 -71.67724609 94.72021484 C-71.05574003 96.0005626 -70.42989577 97.27880507 -69.80224609 98.55615234 C-69.45419922 99.26819824 -69.10615234 99.98024414 -68.74755859 100.71386719 C-64.98017109 107.77600006 -57.71236684 110.66230816 -50.67724609 113.72021484 C-37.15384565 117.70873125 -21.00269899 115.15327563 -8.765625 108.71435547 C-5.68891915 107.01718239 -2.68798535 105.2443562 0.29931641 103.39208984 C3.09681475 101.84515277 5.17958133 101.11749316 8.32275391 100.72021484 C13.57467502 106.34221135 17.10176292 112.2834539 20.63525391 119.09521484 C21.17214844 120.08521484 21.70904297 121.07521484 22.26220703 122.09521484 C25.19334395 127.69875025 28.0770208 133.22887285 27.32275391 139.72021484 C20.86822802 150.94479279 5.78963184 157.17115478 -5.98583984 160.71630859 C-15.9677526 163.32082765 -25.63314524 163.93383116 -35.90771484 163.96044922 C-38.14378284 163.97007085 -40.37889628 164.00111273 -42.61474609 164.03271484 C-67.46747109 164.21637006 -89.67714297 156.04184801 -107.67724609 138.72021484 C-124.11197007 121.9573013 -130.36912589 99.1729081 -130.92724609 76.22021484 C-130.36435084 53.00078575 -124.7367688 30.14021277 -108.67724609 12.72021484 C-107.90509766 11.86814453 -107.13294922 11.01607422 -106.33740234 10.13818359 C-80.13741515 -17.46906989 -30.86330507 -23.54955534 0 0 Z M-67.64990234 36.81396484 C-72.01549822 42.19252239 -74.70991187 46.93480427 -75.42724609 53.90771484 C-75.52521484 54.76751953 -75.62318359 55.62732422 -75.72412109 56.51318359 C-75.92739601 58.93135329 -75.92739601 58.93135329 -73.67724609 60.72021484 C-71.77800366 61.03033061 -71.77800366 61.03033061 -69.59130859 60.98583984 C-68.75212891 60.98986816 -67.91294922 60.99389648 -67.04833984 60.99804688 C-66.14212891 60.9888623 -65.23591797 60.97967773 -64.30224609 60.97021484 C-62.908125 60.96223877 -62.908125 60.96223877 -61.48583984 60.95410156 C-54.85402964 60.86572218 -48.27820078 60.48278608 -41.67724609 59.84521484 C-40.43322021 59.72774902 -40.43322021 59.72774902 -39.1640625 59.60791016 C-35.01965499 59.16065344 -31.48304046 58.5463823 -27.67724609 56.72021484 C-26.95281885 50.05548417 -28.98526984 45.25817922 -32.67724609 39.72021484 C-37.18327106 34.77812294 -41.71274507 31.19048669 -48.50927734 30.38427734 C-56.42123159 30.28058201 -62.06832989 30.88976121 -67.64990234 36.81396484 Z " fill="#FF7F01" transform="translate(896.67724609375,505.27978515625)"/>
<path d="M0 0 C1.90217285 -0.00945648 1.90217285 -0.00945648 3.84277344 -0.019104 C5.22330871 -0.0155241 6.60384271 -0.01142211 7.984375 -0.00683594 C9.40397203 -0.00818375 10.82356861 -0.01012525 12.24316406 -0.01263428 C15.21553958 -0.01558009 18.18779474 -0.01130542 21.16015625 -0.00195312 C24.96667055 0.00944119 28.77290279 0.0028788 32.57940674 -0.00909805 C35.50994993 -0.01633135 38.44042646 -0.01402199 41.37097168 -0.00884247 C42.77437371 -0.00751003 44.17778184 -0.00913946 45.58117676 -0.01380157 C47.54369997 -0.01889065 49.50624445 -0.00975642 51.46875 0 C52.58475586 0.00159119 53.70076172 0.00318237 54.85058594 0.00482178 C57.71716061 0.25727304 59.38983988 0.60840549 61.734375 2.25878906 C63.31607854 8.25470081 62.70054085 14.46856858 62.4296875 20.61425781 C62.36453445 22.25954216 62.36453445 22.25954216 62.29806519 23.93806458 C62.15778389 27.44107689 62.00860852 30.94364794 61.859375 34.44628906 C61.76636537 36.75030291 61.67391241 39.05433931 61.58203125 41.35839844 C60.87910988 58.72438889 60.87910988 58.72438889 60.48068237 65.85629272 C59.84718262 77.36020602 59.58613608 88.81675683 59.6015625 100.33691406 C59.60054376 102.10692363 59.59920253 103.87693304 59.5975647 105.64694214 C59.59490603 110.31006395 59.59926236 114.97315158 59.60580444 119.63626862 C59.60939969 122.52865193 59.61099859 125.42103025 59.61206055 128.31341553 C59.6234855 153.33623636 59.76228619 178.34519913 60.44869995 203.36010742 C60.65607035 211.01040154 60.82139226 218.66058897 60.890625 226.31347656 C60.9054895 227.16604034 60.920354 228.01860413 60.93566895 228.89700317 C60.96482901 234.91310805 60.96482901 234.91310805 58.734375 238.25878906 C52.24552082 239.81870173 45.42889468 239.42056191 38.79296875 239.42675781 C37.55192886 239.43008621 36.31088898 239.43341461 35.03224182 239.43684387 C32.41578541 239.4418937 29.7993226 239.4442528 27.18286133 239.4440918 C24.50701177 239.44401024 21.83133231 239.45100233 19.15551758 239.46459961 C15.2846149 239.48291131 11.4139104 239.48782747 7.54296875 239.48925781 C6.34909042 239.49644333 5.1552121 239.50362885 3.92515564 239.5110321 C2.24795189 239.50641716 2.24795189 239.50641716 0.53686523 239.50170898 C-0.44129654 239.503134 -1.41945831 239.50455902 -2.42726135 239.50602722 C-5.64805627 239.22547705 -8.27870974 238.486612 -11.265625 237.25878906 C-12.59514232 234.59975443 -12.31479555 232.72799516 -12.21484375 229.75097656 C-12.17681641 228.56133301 -12.13878906 227.37168945 -12.09960938 226.14599609 C-12.05097781 224.80858659 -12.00214221 223.47118449 -11.953125 222.13378906 C-11.90534379 220.72478077 -11.85782557 219.31576353 -11.81054688 217.90673828 C-11.33324662 204.02511322 -10.72359645 190.14849293 -10.13320923 176.27133179 C-9.56979685 162.99811773 -9.04017522 149.72552633 -8.640625 136.44628906 C-8.60066406 135.16963379 -8.56070313 133.89297852 -8.51953125 132.57763672 C-7.85685479 109.245903 -8.6583302 85.95626976 -9.33850098 62.6350708 C-9.50566646 56.90298055 -9.66977674 51.17081765 -9.828125 45.43847656 C-9.84993835 44.64952751 -9.87175171 43.86057846 -9.89422607 43.04772186 C-10.26374647 29.44920477 -10.39307419 15.86276479 -10.265625 2.25878906 C-6.79070049 0.1332461 -4.03518419 0.00575331 0 0 Z " fill="#FF7F01" transform="translate(683.265625,425.7412109375)"/>
<path d="M0 0 C1.99692344 0.9165954 3.99498928 1.83070567 5.99414062 2.74243164 C10.06238939 4.60095873 14.12485377 6.47131013 18.18310547 8.3515625 C25.99034108 11.96204405 33.84797271 15.45742516 41.70785522 18.95135498 C44.81171772 20.33366537 47.91134998 21.72531415 51.01100159 23.11703491 C56.8661332 25.74584373 62.72645958 28.36117596 68.6050415 30.93717957 C71.33108908 32.1321929 74.05430867 33.33357194 76.77734375 34.53543091 C78.62730276 35.34854157 80.4815576 36.15185671 82.3359375 36.95483398 C83.43421875 37.44024658 84.5325 37.92565918 85.6640625 38.42578125 C86.61619629 38.84126221 87.56833008 39.25674316 88.54931641 39.68481445 C91.263944 41.17292826 93.06286368 42.70691804 95.0625 45.0625 C95.5625 47.625 95.5625 47.625 95.0625 50.0625 C92.38277206 52.46434408 90.02198283 53.56781841 86.55078125 54.4140625 C85.29104492 54.73117187 85.29104492 54.73117187 84.00585938 55.0546875 C82.70358398 55.36792969 82.70358398 55.36792969 81.375 55.6875 C79.64120866 56.11427941 77.90809346 56.54381836 76.17578125 56.9765625 C75.41048096 57.1617041 74.64518066 57.3468457 73.85668945 57.53759766 C72.05659037 57.90837186 72.05659037 57.90837186 71.0625 59.0625 C70.96983354 60.39755085 70.94502608 61.73742642 70.94897461 63.07568359 C70.94905014 63.92681732 70.94912567 64.77795105 70.94920349 65.65487671 C70.95436478 66.58087677 70.95952606 67.50687683 70.96484375 68.4609375 C70.9662587 69.40683746 70.96767365 70.35273743 70.96913147 71.32730103 C70.9747481 74.36406559 70.98729497 77.4007576 71 80.4375 C71.0050136 82.4791656 71.00957675 84.52083235 71.01367188 86.5625 C71.02352815 91.06702748 71.03775672 95.57151734 71.05577087 100.07601929 C71.06140135 101.7381715 71.0625 103.40033825 71.0625 105.0625 C72.0525 105.7225 73.0425 106.3825 74.0625 107.0625 C73.8975 107.64 73.7325 108.2175 73.5625 108.8125 C72.71265991 112.63678039 73.03680739 115.4645346 74.5 119 C75.78913069 122.13252531 76.37287062 124.61435308 77.0625 128.0625 C71.7825 128.0625 66.5025 128.0625 61.0625 128.0625 C63.9375 115.4375 63.9375 115.4375 65.0625 112.0625 C64.18335312 109.4055809 64.18335312 109.4055809 63.0625 107.0625 C65.0425 105.0825 65.0425 105.0825 67.0625 103.0625 C66.7325 102.7325 66.4025 102.4025 66.0625 102.0625 C65.96137187 99.12883032 65.9228096 96.21919827 65.9296875 93.28515625 C65.92873077 92.40347275 65.92777405 91.52178925 65.92678833 90.61338806 C65.92610641 88.74461801 65.92796149 86.87584561 65.93212891 85.00708008 C65.93747068 82.14073372 65.93218758 79.27454453 65.92578125 76.40820312 C65.92644215 74.59635382 65.92772357 72.78450461 65.9296875 70.97265625 C65.92766327 70.1111647 65.92563904 69.24967316 65.92355347 68.36207581 C65.94754561 62.29240878 65.94754561 62.29240878 67.0625 60.0625 C59.03158686 61.27164872 51.26331253 63.25341914 43.43823242 65.38549805 C42.64263916 65.60117432 41.8470459 65.81685059 41.02734375 66.0390625 C39.95407837 66.33417725 39.95407837 66.33417725 38.85913086 66.63525391 C37.0625 67.0625 37.0625 67.0625 35.0625 67.0625 C34.94132813 65.95390625 34.82015625 64.8453125 34.6953125 63.703125 C34.52643704 62.23953766 34.35714428 60.77599843 34.1875 59.3125 C34.10886719 58.58289063 34.03023437 57.85328125 33.94921875 57.1015625 C33.37879164 51.77533521 33.37879164 51.77533521 31.0625 47.0625 C16.58250889 36.42413918 -9.68027668 36.64320465 -26.8125 36.6875 C-27.95253479 36.68781723 -27.95253479 36.68781723 -29.11560059 36.68814087 C-59.3226227 36.57938004 -59.3226227 36.57938004 -86.265625 48.03125 C-89.33277776 51.75769727 -89.20034633 55.58396432 -89.5 60.25 C-89.64583333 62.52083333 -89.79166667 64.79166667 -89.9375 67.0625 C-101.61864976 64.54977589 -113.22682495 61.83628097 -124.77392578 58.76293945 C-126.40262936 58.33245165 -128.03323579 57.90910823 -129.66552734 57.49243164 C-132.07823178 56.87626478 -134.48461496 56.23940262 -136.890625 55.59765625 C-137.61252014 55.4172731 -138.33441528 55.23688995 -139.07818604 55.05104065 C-144.10668933 53.67329072 -147.13136909 51.63158502 -150.9375 48.0625 C-148.1585768 43.25950534 -146.03119064 41.15640913 -140.9375 39 C-139.57613951 38.40520757 -138.21552552 37.80870501 -136.85546875 37.2109375 C-135.6960376 36.70965332 -135.6960376 36.70965332 -134.51318359 36.19824219 C-130.54583428 34.44884797 -126.63056759 32.59090172 -122.70654297 30.74682617 C-109.13710109 24.3799804 -95.47806881 18.21863964 -81.75878906 12.18188477 C-80.23107448 11.50938027 -78.70340533 10.83677256 -77.17578125 10.1640625 C-76.41735931 9.83017014 -75.65893738 9.49627777 -74.87753296 9.15226746 C-70.18886684 7.08035296 -65.526158 4.95912612 -60.87872314 2.7963562 C-57.82268005 1.3762213 -54.75848669 -0.02579687 -51.69342041 -1.42633057 C-50.25473744 -2.08956514 -48.81993473 -2.76129659 -47.3895874 -3.44232178 C-28.96706106 -12.20468977 -17.73239909 -8.33517643 0 0 Z " fill="#1A7691" transform="translate(738.9375,310.9375)"/>
<path d="M0 0 C1.75315238 1.75315238 1.29736217 4.04565753 1.375 6.4375 C1.33308108 12.90000078 -0.03806656 18.2289739 -1.93334961 24.32177734 C-4.45555539 32.80113394 -5.5366922 41.46677004 -6.65527344 50.22509766 C-6.80383789 51.34835449 -6.95240234 52.47161133 -7.10546875 53.62890625 C-7.23074951 54.64025635 -7.35603027 55.65160645 -7.48510742 56.69360352 C-7.65502197 57.45471436 -7.82493652 58.2158252 -8 59 C-10.62997684 60.31498842 -12.60434815 60.13908862 -15.55004883 60.15771484 C-16.71760208 60.16797699 -17.88515533 60.17823914 -19.08808899 60.18881226 C-21.00321541 60.19976425 -21.00321541 60.19976425 -22.95703125 60.2109375 C-24.29718318 60.22393277 -25.63732734 60.23775224 -26.97746277 60.25234985 C-32.6534374 60.31347135 -38.32941135 60.36696696 -44.00561523 60.40136719 C-64.48501259 60.53223725 -84.91571838 61.10978866 -105.16389465 64.5352478 C-108.22851551 65.03744681 -111.14584516 65.16800154 -114.25 65.1875 C-115.28640625 65.20167969 -116.3228125 65.21585938 -117.390625 65.23046875 C-120 65 -120 65 -122 63 C-123.21091134 53.48582748 -121.05427869 44.7471051 -118.375 35.6875 C-118.01325684 34.42454102 -117.65151367 33.16158203 -117.27880859 31.86035156 C-111.75786375 12.89869451 -111.75786375 12.89869451 -108 5 C-105.44237804 3.72118902 -103.69904681 3.9070347 -100.83642578 3.94995117 C-99.7503302 3.96277634 -98.66423462 3.9756015 -97.54522705 3.98881531 C-96.35725525 4.00668594 -95.16928345 4.02455658 -93.9453125 4.04296875 C-91.4008926 4.06846284 -88.85645771 4.09249298 -86.31201172 4.11523438 C-85.64781723 4.12148677 -84.98362274 4.12773916 -84.29930115 4.13418102 C-60.34816252 4.35580293 -36.98663207 3.73409865 -13.22949219 0.37890625 C-8.83501829 -0.13668367 -4.4151267 -0.42083779 0 0 Z " fill="#FF7F01" transform="translate(1067,529)"/>
<path d="M0 0 C0.73193573 -0.00067474 1.46387146 -0.00134949 2.21798706 -0.00204468 C19.52398238 0.02324094 42.04042317 0.39738753 57.1875 10.25 C60.00115593 14.13872634 59.4396408 18.58913007 59.3828125 23.171875 C59.3799826 24.03186096 59.37715271 24.89184692 59.37423706 25.77789307 C59.3630615 28.51873821 59.33796179 31.25925398 59.3125 34 C59.3024668 35.86067236 59.29334155 37.72134985 59.28515625 39.58203125 C59.26313076 44.13814732 59.22861897 48.69401786 59.1875 53.25 C52.27374516 52.70277932 45.38578579 52.07459707 38.5 51.25 C7.85002654 47.77970577 -23.48598044 48.19509747 -53.9921875 52.8828125 C-56.64248823 53.2278655 -59.14495504 53.27634474 -61.8125 53.25 C-61.91154974 47.78740707 -61.98405375 42.32533951 -62.03222656 36.86206055 C-62.05231305 35.00454602 -62.07958778 33.14709449 -62.11425781 31.28979492 C-62.16290737 28.61621537 -62.18549809 25.94347344 -62.203125 23.26953125 C-62.22377014 22.44226028 -62.24441528 21.61498932 -62.26568604 20.76264954 C-62.26721732 16.80710286 -62.10716219 14.74000322 -60.02563477 11.27856445 C-57.91251111 9.34167042 -56.73893627 8.47565725 -54.01171875 7.7734375 C-53.28911865 7.57911133 -52.56651855 7.38478516 -51.82202148 7.18457031 C-51.05575439 6.99991211 -50.2894873 6.81525391 -49.5 6.625 C-48.704729 6.4197168 -47.90945801 6.21443359 -47.09008789 6.00292969 C-31.37820873 2.02523876 -16.20083978 0.01342806 0 0 Z " fill="#1A7691" transform="translate(712.8125,348.75)"/>
<path d="M0 0 C1.25039063 0.07863281 2.50078125 0.15726562 3.7890625 0.23828125 C21.46845671 1.42788852 21.46845671 1.42788852 29 3.125 C29.495 4.115 29.495 4.115 30 5.125 C27.7095344 5.61057871 25.41786582 6.08849409 23.125 6.5625 C21.21074219 6.96275391 21.21074219 6.96275391 19.2578125 7.37109375 C11.31873021 8.87565182 3.33461733 9.2857822 -4.73046875 9.328125 C-5.63223846 9.33500336 -6.53400818 9.34188171 -7.46310425 9.34896851 C-10.37127764 9.36607852 -13.27927889 9.37242728 -16.1875 9.375 C-17.17934296 9.37667175 -18.17118591 9.37834351 -19.19308472 9.38006592 C-32.20675554 9.38137692 -45.10996833 9.04965574 -58.0625 7.75 C-59.33182373 7.62399414 -60.60114746 7.49798828 -61.90893555 7.36816406 C-71.14722843 6.33488732 -71.14722843 6.33488732 -75 4.125 C-64.49425749 1.84444808 -54.03668734 0.67406078 -43.3125 -0.0625 C-42.11471924 -0.14612793 -40.91693848 -0.22975586 -39.68286133 -0.31591797 C-26.38731673 -1.16160954 -13.28463241 -0.91759832 0 0 Z " fill="#1A7691" transform="translate(734,399.875)"/>
</svg>
